<svg id="Layer_1" data-name="Layer 1" xmlns="http://www.w3.org/2000/svg" viewBox="0 0 326 248.9"><defs><style>.cls-1{fill:#fff;}.cls-2{fill:none;stroke:#fff;stroke-miterlimit:10;stroke-width:0.5px;}.cls-3{fill:#4d1979;}.cls-4{fill:#231f20;}.cls-5{fill:#592c82;}</style></defs><title>cse-dept-mathematics</title><path class="cls-1" d="M17.3,138.2a2.74,2.74,0,0,1-2.2.9H4.2v-3.3H15v-3.3H7a3.1,3.1,0,0,1-2.2-.9,3.07,3.07,0,0,1-.8-2.4v-3.4a3.17,3.17,0,0,1,.9-2.3,2.87,2.87,0,0,1,2.2-1h10v3.3H7v3.4h8.1a3.1,3.1,0,0,1,2.2.9,3.58,3.58,0,0,1,.9,2.4v3.4A3.34,3.34,0,0,1,17.3,138.2Z"/><path class="cls-1" d="M24.5,139.2q-3,0-3-3.3v-10a3.17,3.17,0,0,1,.9-2.3,2.81,2.81,0,0,1,2.1-1H36.1v3.3H24.5v10H36.2v3.3Z"/><path class="cls-1" d="M40.3,139.2V122.5h3v16.7Z"/><path class="cls-1" d="M47.5,139.2V122.5H59.6v3.3H50.5v3.4h9.1v3.3H50.5v3.4h9.1v3.3Z"/><path class="cls-1" d="M77.2,139.2,67,128.3v10.8H63.9V122.4h1.9L76,133.2V122.4h3v16.7H77.2Z"/><path class="cls-1" d="M85.9,139.2q-3,0-3-3.3v-10a3.17,3.17,0,0,1,.9-2.3,2.87,2.87,0,0,1,2.2-1H97.6v3.3H85.9v10H97.5v3.3Z"/><path class="cls-1" d="M101.6,139.2V122.5h12.1v3.3h-9.1v3.4h9.1v3.3h-9.1v3.4h9.1v3.3Z"/><path class="cls-1" d="M146.6,139.2V122.5h12.1v3.3h-9.1v3.4h9.1v3.3h-9.1v3.4h9.1v3.3Z"/><path class="cls-1" d="M176.3,139.2,166,128.3v10.8h-3V122.4h1.9l10.2,10.8V122.4h3v16.7h-1.8Z"/><path class="cls-1" d="M185.3,139.2q-3,0-3-3.3v-10a3.17,3.17,0,0,1,.9-2.3,2.81,2.81,0,0,1,2.1-1H197v3.3H185.3v10h9.1v-3.3h-6.1v-3.3h9.1v10Z"/><path class="cls-1" d="M201.7,139.2V122.5h3v16.7Z"/><path class="cls-1" d="M222.2,139.2,212,128.3v10.8h-3.1V122.4h1.9L221,133.2V122.4h3v16.7h-1.8Z"/><path class="cls-1" d="M228.4,139.2V122.5h12.1v3.3h-9.1v3.4h9.1v3.3h-9.1v3.4h9.1v3.3Z"/><path class="cls-1" d="M244.7,139.2V122.5h12.1v3.3h-9.1v3.4h9.1v3.3h-9.1v3.4h9.1v3.3Z"/><path class="cls-1" d="M271.3,139.2l-7.1-6.7h-.5v6.7h-3V122.5h11.6a2.81,2.81,0,0,1,2.1,1,3.34,3.34,0,0,1,.9,2.3v3.4q0,3.3-3,3.3h-3.8l7.3,6.7Zm1-13.4h-8.6v3.4h8.6Z"/><path class="cls-1" d="M279.5,139.2V122.5h3v16.7Z"/><path class="cls-1" d="M300.1,139.2l-10.2-10.8v10.8h-3.1V122.5h1.9l10.2,10.8V122.5h3v16.7Z"/><path class="cls-1" d="M309.1,139.2q-3,0-3-3.3v-10a3.17,3.17,0,0,1,.9-2.3,2.81,2.81,0,0,1,2.1-1h11.6v3.3H309v10h9.1v-3.3H312v-3.3h9.1v10Z"/><path class="cls-1" d="M134.3,130.9h2.6V133a9.86,9.86,0,0,1-.3,2.4l2.3,2.1-1.4,1.9-1.9-1.8c-.7,1.3-2.4,1.9-4.9,1.9-2.9,0-4.8-.4-5.6-1.1s-1.3-2.2-1.3-4.6c0-2.6,1-4.1,3-4.4a4.22,4.22,0,0,1-1.3-3.2,4.46,4.46,0,0,1,1.1-3.4q1.05-.9,3.9-.9c1.9,0,3.3.3,4.1,1s1.1,1.8,1.1,3.6v.9H133v-.5a2.82,2.82,0,0,0-.4-2,2.66,2.66,0,0,0-1.9-.4c-1.5,0-2.2.6-2.2,1.8a3.3,3.3,0,0,0,1.2,2.4l4.9,4.6a4.87,4.87,0,0,0,.1-1.2A2.84,2.84,0,0,1,134.3,130.9Zm-6,.1c-1.2.2-1.8,1.1-1.8,2.9a3.75,3.75,0,0,0,.6,2.6,4.61,4.61,0,0,0,2.8.6,9.74,9.74,0,0,0,2.4-.2,2.54,2.54,0,0,0,1.2-1.1Z"/><path class="cls-1" d="M67.3,98.7a4.83,4.83,0,0,1,4-1.9A5.06,5.06,0,0,1,76,99.4a7.54,7.54,0,0,1,.9,2.9H74.2a3.63,3.63,0,0,0-.7-1.7,2.35,2.35,0,0,0-2.2-1A2.61,2.61,0,0,0,69,101a8.37,8.37,0,0,0-.8,4.1,7,7,0,0,0,.9,4,2.72,2.72,0,0,0,4.5.2,6.7,6.7,0,0,0,.7-1.8H77a8.31,8.31,0,0,1-1.8,4.2,4.41,4.41,0,0,1-3.7,1.6,5.07,5.07,0,0,1-4.4-2.2,9.89,9.89,0,0,1-1.6-6A9,9,0,0,1,67.3,98.7Z"/><path class="cls-1" d="M97.6,111.3a5.83,5.83,0,0,1-8.2.3l-.3-.3a9.71,9.71,0,0,1-2-6.5,9.71,9.71,0,0,1,2-6.5,5.83,5.83,0,0,1,8.2-.3l.3.3c1.3,1.4,1.9,3.6,1.9,6.5S98.9,109.9,97.6,111.3ZM95.9,109a9.11,9.11,0,0,0,0-8.2,2.66,2.66,0,0,0-2.5-1.4,3.14,3.14,0,0,0-2.6,1.4,9.11,9.11,0,0,0,0,8.2,2.71,2.71,0,0,0,2.6,1.4A2.66,2.66,0,0,0,95.9,109Z"/><path class="cls-1" d="M110.3,97H113v12.9h6.4v2.8h-9.1Z"/><path class="cls-1" d="M130,97h2.7v12.9h6.4v2.8H130Z"/><path class="cls-1" d="M159.2,99.8h-6.8v3.3h6.3v2.7h-6.3v4h7.1v2.8h-9.8V97h9.5Z"/><path class="cls-1" d="M179.1,101.9a2.91,2.91,0,0,0-1.5-2.2,2.7,2.7,0,0,0-1.5-.3,3.14,3.14,0,0,0-2.6,1.4,7.22,7.22,0,0,0-1,4.3,6.09,6.09,0,0,0,1.1,4.1,3.07,3.07,0,0,0,4.7.2,4.72,4.72,0,0,0,1.1-2.5h-3v-2.6h5.4v8.4H180l-.3-2a10.7,10.7,0,0,1-1.4,1.6,4.2,4.2,0,0,1-2.6.8,5.08,5.08,0,0,1-4.2-2.2,9.79,9.79,0,0,1-1.7-6,10.09,10.09,0,0,1,1.7-6.1,5.89,5.89,0,0,1,8.6-.8,6,6,0,0,1,1.7,3.8Z"/><path class="cls-1" d="M202.6,99.8h-6.8v3.3H202v2.7h-6.3v4h7.1v2.8H193V97h9.5Z"/><path class="cls-1" d="M237.4,111.3a5.83,5.83,0,0,1-8.2.3l-.3-.3a9.71,9.71,0,0,1-2-6.5,9.71,9.71,0,0,1,2-6.5,5.83,5.83,0,0,1,8.2-.3l.3.3c1.3,1.4,1.9,3.6,1.9,6.5S238.7,109.9,237.4,111.3Zm-1.7-2.3a9.11,9.11,0,0,0,0-8.2,2.66,2.66,0,0,0-2.5-1.4,3.14,3.14,0,0,0-2.6,1.4,9.11,9.11,0,0,0,0,8.2,2.71,2.71,0,0,0,2.6,1.4A2.66,2.66,0,0,0,235.7,109Z"/><path class="cls-1" d="M250.1,97h9.1v2.8h-6.5v3.6h5.7v2.7h-5.7v6.6H250V97Z"/><line class="cls-2" x1="4.3" y1="154.6" x2="320.9" y2="154.6"/><rect class="cls-3" x="105.2" y="0.4" width="114.7" height="69.2"/><path class="cls-1" d="M201.6,51.3a1.4,1.4,0,1,1-1.4,1.4h0a1.31,1.31,0,0,1,1.4-1.4Zm0,3.2a1.7,1.7,0,1,0-1.7-1.7,1.63,1.63,0,0,0,1.7,1.7Zm.2-1.7a.47.47,0,0,0,.5-.5v-.1c0-.4-.3-.5-.7-.5h-.8v1.9h.3v-.9h.4l.5.9h.3Zm-.2-.7c.2,0,.4,0,.4.3s-.4.2-.6.2h-.3v-.5Z"/><path class="cls-1" d="M145,14.9A102.32,102.32,0,0,0,119,22l-.2.1-.7.3v15l1.7-.8.6-.3a51,51,0,0,1,5.6-2.4l.2-.1.8-.3V28.6l1.3-.5v17c-1,.4-1.9.8-2.8,1.2l-.2.1-.7.3V56.9l1.7-.8.6-.3a119.84,119.84,0,0,1,12.9-5.2l.3-.1.8-.2V41l-1.5.4-.5.2c-.6.2-1.2.3-1.8.5V25.6l1.3-.3v4.8l1.4-.3.5-.1c1.8-.4,3.6-.8,5.1-1l.3-.1,1-.2V14.7l-1.3.2Z"/><path class="cls-1" d="M167.9,14.6l-.3-.3H167a32.52,32.52,0,0,0-5.4-.2c-2.8,0-4.9.2-5.3.2h-.5l-.3.3L149,21.3l-.3.3V41.1l.3.3,6.2,6.5.4.4h.8c.2,0,2.5-.2,5.4-.2,1.7,0,3.5.1,5.2.2h.2l.6.1.4-.4,6.4-6.6.3-.3V34.3l-1-.1-6.5-.7-1.3-.2v3.9L164.3,39h-2.4a23.52,23.52,0,0,0-2.8.1l-1.4-1.5V25.3l.8-.8,1.4-1.5h3.9l2.3,2.2v3.3l1,.1,6.5.6,1.3.1V21.5l-.3-.3Z"/><path class="cls-1" d="M206.6,23.3l-.2-.1A68.78,68.78,0,0,0,195,18.8l-.5-.1-1.5-.4v9.4l.8.3,1.5.5v15L193.6,45l-3.7-1.4c-.4-.7-1.5-2.5-1.9-3.1V26.3l1.4.4,1.5.4V17.7l-.9-.2-.3-.1c-5.4-1.3-9.9-2-11.6-2.3l-.5-.1-1.4-.2V24l1,.1h.4l1.1.2V42.5l.2.3,4.9,8,.2.4.4.1h.1a48.82,48.82,0,0,1,9.2,3.6l.2.1.7.3.6-.5,8.2-7.1.4-.3V32l.9.5h0l.6.3,1.7.8v-10Z"/><polygon class="cls-4" points="149 241 162.2 203.2 141.8 211.6 149 241"/><polygon class="cls-5" points="176.4 241 163.2 203.2 183.6 211.6 176.4 241"/><path class="cls-1" d="M41.6,167.4a30.72,30.72,0,0,1,3.4-.3c2.3,0,3.9.5,5,1.5a5.57,5.57,0,0,1,1.7,4.4,6.49,6.49,0,0,1-1.8,4.8,7.6,7.6,0,0,1-5.4,1.8c-1.1,0-2.1-.1-2.9-.1Zm1.6,10.9a7.59,7.59,0,0,0,1.6.1c3.4,0,5.2-1.9,5.2-5.2,0-2.9-1.6-4.7-5-4.7a9.2,9.2,0,0,0-1.9.2v9.6Z"/><path class="cls-1" d="M60.2,173.8H55.4v4.4h5.3v1.3H53.8V167.2h6.6v1.3H55.3v3.9h4.8v1.4Z"/><path class="cls-1" d="M62.8,167.4a23.64,23.64,0,0,1,3-.2,5.1,5.1,0,0,1,3.4,1,3.31,3.31,0,0,1,1.1,2.6,3.57,3.57,0,0,1-.9,2.6,5.06,5.06,0,0,1-3.8,1.4,5.28,5.28,0,0,1-1.3-.1v4.9H62.7V167.4Zm1.6,6a4.89,4.89,0,0,0,1.3.1c1.9,0,3.1-.9,3.1-2.6s-1.1-2.4-2.9-2.4c-.7,0-1.2.1-1.5.1Z"/><path class="cls-1" d="M72.9,175.7l-1.3,3.9H70l4.2-12.3h1.9l4.2,12.3H78.6l-1.3-3.9Zm4.1-1.2L75.8,171a10.41,10.41,0,0,1-.6-2.2h0c-.2.7-.4,1.5-.6,2.2l-1.2,3.6H77Z"/><path class="cls-1" d="M82.1,167.4a13.86,13.86,0,0,1,3-.3,5.17,5.17,0,0,1,3.6,1,3.08,3.08,0,0,1,1,2.3,3.15,3.15,0,0,1-2.3,3.1v.1a3.12,3.12,0,0,1,1.8,2.5,33.86,33.86,0,0,0,.9,3.4H88.5a12.42,12.42,0,0,1-.8-2.9c-.4-1.7-1-2.3-2.5-2.4H83.7v5.3H82.1Zm1.6,5.6h1.6c1.7,0,2.8-.9,2.8-2.3,0-1.6-1.1-2.3-2.8-2.3-.8,0-1.3.1-1.6.1Z"/><path class="cls-1" d="M94.4,168.6H90.7v-1.4h9.1v1.4H96v10.9H94.4Z"/><path class="cls-1" d="M111.5,174.2c-.1-1.7-.2-3.8-.2-5.3h-.1a43.76,43.76,0,0,1-1.6,4.7l-2.2,6h-1.2l-2-5.9a35.9,35.9,0,0,1-1.4-4.8h0c0,1.5-.1,3.6-.2,5.4l-.3,5.3h-1.5l.9-12.3h2l2.1,5.9c.5,1.5.9,2.9,1.2,4.1h.1a31.48,31.48,0,0,1,1.3-4.1l2.2-5.9h2l.8,12.3h-1.6Z"/><path class="cls-1" d="M122.2,173.8h-4.8v4.4h5.3v1.3h-6.9V167.2h6.6v1.3h-5.1v3.9h4.8v1.4Z"/><path class="cls-1" d="M124.8,179.6V167.3h1.7l3.9,6.2a32.35,32.35,0,0,1,2.2,4h0c-.1-1.6-.2-3.1-.2-5.1v-5.1h1.5v12.3h-1.6l-3.9-6.2a34.62,34.62,0,0,1-2.3-4.1H126c.1,1.6.1,3,.1,5.1v5.3h-1.3Z"/><path class="cls-1" d="M139.2,168.6h-3.7v-1.4h9.1v1.4h-3.8v10.9h-1.6Z"/><path class="cls-1" d="M160.3,173.3c0,4.2-2.6,6.5-5.7,6.5s-5.5-2.5-5.5-6.2c0-3.9,2.4-6.5,5.7-6.5S160.3,169.6,160.3,173.3Zm-9.6.2c0,2.6,1.4,5,3.9,5s3.9-2.3,3.9-5.1c0-2.4-1.3-5-3.9-5S150.7,170.8,150.7,173.5Z"/><path class="cls-1" d="M162.3,167.3h6.6v1.3h-5v4.1h4.7V174h-4.7v5.6h-1.6Z"/><path class="cls-1" d="M185.4,174.2c-.1-1.7-.2-3.8-.2-5.3h-.1a43.76,43.76,0,0,1-1.6,4.7l-2.2,6h-1.2l-2-5.9a35.9,35.9,0,0,1-1.4-4.8h0c0,1.5-.1,3.6-.2,5.4l-.3,5.3h-1.5l.9-12.3h2l2.1,5.9c.5,1.5.9,2.9,1.2,4.1h.1a31.48,31.48,0,0,1,1.3-4.1l2.2-5.9h2l.8,12.3h-1.6Z"/><path class="cls-1" d="M191.6,175.7l-1.3,3.9h-1.6l4.2-12.3h1.9l4.2,12.3h-1.7l-1.3-3.9Zm4-1.2-1.2-3.5a10.41,10.41,0,0,1-.6-2.2h0c-.2.7-.4,1.5-.6,2.2l-1.2,3.6h3.6Z"/><path class="cls-1" d="M201.7,168.6H198v-1.4h9.1v1.4h-3.8v10.9h-1.6Z"/><path class="cls-1" d="M210,167.3v5.1h5.9v-5.1h1.6v12.3h-1.6v-5.8H210v5.8h-1.6V167.3Z"/><path class="cls-1" d="M226.7,173.8h-4.8v4.4h5.3v1.3h-6.9V167.2h6.6v1.3h-5.1v3.9h4.8v1.4Z"/><path class="cls-1" d="M239.6,174.2c-.1-1.7-.2-3.8-.2-5.3h-.1a43.76,43.76,0,0,1-1.6,4.7l-2.2,6h-1.2l-2-5.9a35.9,35.9,0,0,1-1.4-4.8h0c0,1.5-.1,3.6-.2,5.4l-.3,5.3h-1.5l.9-12.3h2l2.1,5.9c.5,1.5.9,2.9,1.2,4.1h.1a31.48,31.48,0,0,1,1.3-4.1l2.2-5.9h2l.8,12.3h-1.6Z"/><path class="cls-1" d="M245.7,175.7l-1.3,3.9h-1.6l4.2-12.3h1.9l4.2,12.3h-1.7l-1.3-3.9Zm4.1-1.2-1.2-3.5a10.41,10.41,0,0,1-.6-2.2h0c-.2.7-.4,1.5-.6,2.2l-1.2,3.6h3.6Z"/><path class="cls-1" d="M255.9,168.6h-3.7v-1.4h9.1v1.4h-3.8v10.9h-1.6Z"/><path class="cls-1" d="M264.2,167.3v12.3h-1.6V167.3Z"/><path class="cls-1" d="M275.5,179.2a7.85,7.85,0,0,1-3.2.6c-3.5,0-6.1-2.2-6.1-6.2a6.12,6.12,0,0,1,6.4-6.5,7.06,7.06,0,0,1,2.9.5l-.4,1.3a5.83,5.83,0,0,0-2.5-.5c-2.9,0-4.8,1.8-4.8,5.1,0,3,1.7,4.9,4.7,4.9a6.33,6.33,0,0,0,2.6-.5Z"/><path class="cls-1" d="M277.3,177.6a6.13,6.13,0,0,0,2.8.8c1.6,0,2.6-.9,2.6-2.1s-.7-1.8-2.3-2.4c-2-.7-3.2-1.8-3.2-3.5,0-1.9,1.6-3.3,4-3.3a5.36,5.36,0,0,1,2.7.6l-.4,1.3a5,5,0,0,0-2.3-.6c-1.7,0-2.3,1-2.3,1.8,0,1.1.7,1.7,2.4,2.4,2.1.8,3.1,1.8,3.1,3.6s-1.4,3.5-4.3,3.5a5.45,5.45,0,0,1-3.1-.8Z"/></svg>